<mxfile host="app.diagrams.net" modified="2023-04-06T14:16:24.174Z" agent="Mozilla/5.0 (Windows NT 10.0; Win64; x64) AppleWebKit/537.36 (KHTML, like Gecko) Chrome/111.0.0.0 Safari/537.36 Edg/111.0.1661.62" etag="MApO88vq82Y3Q6yD5q5L" version="21.1.4" type="google">
  <diagram name="Page-1" id="efa7a0a1-bf9b-a30e-e6df-94a7791c09e9">
    <mxGraphModel grid="1" page="1" gridSize="10" guides="1" tooltips="1" connect="1" arrows="1" fold="1" pageScale="1" pageWidth="826" pageHeight="1169" background="none" math="0" shadow="0">
      <root>
        <mxCell id="0" />
        <mxCell id="1" parent="0" />
        <mxCell id="V6GIQ45EQ9TIltURCN56-17" value="" style="rounded=1;whiteSpace=wrap;html=1;strokeColor=#0049BF;fontFamily=Helvetica;fontSize=12;fontColor=default;fillColor=#D6D3E3;gradientColor=none;" vertex="1" parent="1">
          <mxGeometry x="-50" y="-770" width="1060" height="790" as="geometry" />
        </mxCell>
        <mxCell id="xEkYmI9kNxcId5JUl7A3-123" value="deployed in" style="edgeStyle=orthogonalEdgeStyle;rounded=0;orthogonalLoop=1;jettySize=auto;html=1;entryX=1;entryY=0.5;entryDx=0;entryDy=0;" edge="1" parent="1" source="xEkYmI9kNxcId5JUl7A3-115" target="xEkYmI9kNxcId5JUl7A3-121">
          <mxGeometry relative="1" as="geometry">
            <Array as="points">
              <mxPoint x="330" y="-585" />
              <mxPoint x="330" y="-585" />
            </Array>
          </mxGeometry>
        </mxCell>
        <mxCell id="xEkYmI9kNxcId5JUl7A3-174" style="edgeStyle=orthogonalEdgeStyle;rounded=0;orthogonalLoop=1;jettySize=auto;html=1;fillColor=#FF1100" edge="1" parent="1" source="xEkYmI9kNxcId5JUl7A3-115" target="xEkYmI9kNxcId5JUl7A3-128">
          <mxGeometry relative="1" as="geometry">
            <Array as="points">
              <mxPoint x="355" y="-380" />
              <mxPoint x="355" y="-380" />
            </Array>
          </mxGeometry>
        </mxCell>
        <mxCell id="xEkYmI9kNxcId5JUl7A3-175" value="captures" style="edgeLabel;html=1;align=center;verticalAlign=middle;resizable=0;points=[];" vertex="1" connectable="0" parent="xEkYmI9kNxcId5JUl7A3-174">
          <mxGeometry x="-0.457" y="2" relative="1" as="geometry">
            <mxPoint as="offset" />
          </mxGeometry>
        </mxCell>
        <mxCell id="xEkYmI9kNxcId5JUl7A3-115" value="Device" style="swimlane;fontStyle=0;childLayout=stackLayout;horizontal=1;startSize=26;fillColor=#6A00FF;horizontalStack=0;resizeParent=1;resizeParentMax=0;resizeLast=0;collapsible=1;marginBottom=0;strokeColor=#6A00FF;" vertex="1" parent="1">
          <mxGeometry x="290" y="-710" width="200" height="334" as="geometry">
            <mxRectangle x="390" y="-850" width="80" height="30" as="alternateBounds" />
          </mxGeometry>
        </mxCell>
        <mxCell id="xEkYmI9kNxcId5JUl7A3-116" value="id" style="text;strokeColor=#6A00FF;fillColor=none;align=left;verticalAlign=top;spacingLeft=4;spacingRight=4;overflow=hidden;rotatable=0;points=[[0,0.5],[1,0.5]];portConstraint=eastwest;whiteSpace=wrap;html=1;" vertex="1" parent="xEkYmI9kNxcId5JUl7A3-115">
          <mxGeometry y="26" width="200" height="26" as="geometry" />
        </mxCell>
        <mxCell id="xEkYmI9kNxcId5JUl7A3-117" value="type" style="text;strokeColor=#6A00FF;fillColor=none;align=left;verticalAlign=top;spacingLeft=4;spacingRight=4;overflow=hidden;rotatable=0;points=[[0,0.5],[1,0.5]];portConstraint=eastwest;whiteSpace=wrap;html=1;" vertex="1" parent="xEkYmI9kNxcId5JUl7A3-115">
          <mxGeometry y="52" width="200" height="26" as="geometry" />
        </mxCell>
        <mxCell id="xEkYmI9kNxcId5JUl7A3-118" value="name" style="text;strokeColor=#6A00FF;fillColor=none;align=left;verticalAlign=top;spacingLeft=4;spacingRight=4;overflow=hidden;rotatable=0;points=[[0,0.5],[1,0.5]];portConstraint=eastwest;whiteSpace=wrap;html=1;" vertex="1" parent="xEkYmI9kNxcId5JUl7A3-115">
          <mxGeometry y="78" width="200" height="32" as="geometry" />
        </mxCell>
        <mxCell id="xEkYmI9kNxcId5JUl7A3-164" value="publishFrequency" style="text;strokeColor=#6A00FF;fillColor=none;align=left;verticalAlign=top;spacingLeft=4;spacingRight=4;overflow=hidden;rotatable=0;points=[[0,0.5],[1,0.5]];portConstraint=eastwest;whiteSpace=wrap;html=1;" vertex="1" parent="xEkYmI9kNxcId5JUl7A3-115">
          <mxGeometry y="110" width="200" height="32" as="geometry" />
        </mxCell>
        <mxCell id="xEkYmI9kNxcId5JUl7A3-165" value="messageSize" style="text;strokeColor=#6A00FF;fillColor=none;align=left;verticalAlign=top;spacingLeft=4;spacingRight=4;overflow=hidden;rotatable=0;points=[[0,0.5],[1,0.5]];portConstraint=eastwest;whiteSpace=wrap;html=1;" vertex="1" parent="xEkYmI9kNxcId5JUl7A3-115">
          <mxGeometry y="142" width="200" height="32" as="geometry" />
        </mxCell>
        <mxCell id="V6GIQ45EQ9TIltURCN56-12" value="dataDistribution" style="text;strokeColor=#6A00FF;fillColor=none;align=left;verticalAlign=top;spacingLeft=4;spacingRight=4;overflow=hidden;rotatable=0;points=[[0,0.5],[1,0.5]];portConstraint=eastwest;whiteSpace=wrap;html=1;" vertex="1" parent="xEkYmI9kNxcId5JUl7A3-115">
          <mxGeometry y="174" width="200" height="32" as="geometry" />
        </mxCell>
        <mxCell id="xEkYmI9kNxcId5JUl7A3-171" value="generatesActuationCommand*" style="text;strokeColor=#6A00FF;fillColor=none;align=left;verticalAlign=top;spacingLeft=4;spacingRight=4;overflow=hidden;rotatable=0;points=[[0,0.5],[1,0.5]];portConstraint=eastwest;whiteSpace=wrap;html=1;" vertex="1" parent="xEkYmI9kNxcId5JUl7A3-115">
          <mxGeometry y="206" width="200" height="32" as="geometry" />
        </mxCell>
        <mxCell id="xEkYmI9kNxcId5JUl7A3-169" value="capturesObservation*" style="text;strokeColor=#6A00FF;fillColor=none;align=left;verticalAlign=top;spacingLeft=4;spacingRight=4;overflow=hidden;rotatable=0;points=[[0,0.5],[1,0.5]];portConstraint=eastwest;whiteSpace=wrap;html=1;" vertex="1" parent="xEkYmI9kNxcId5JUl7A3-115">
          <mxGeometry y="238" width="200" height="32" as="geometry" />
        </mxCell>
        <mxCell id="xEkYmI9kNxcId5JUl7A3-172" value="receivesActuationCommand*" style="text;strokeColor=#6A00FF;fillColor=none;align=left;verticalAlign=top;spacingLeft=4;spacingRight=4;overflow=hidden;rotatable=0;points=[[0,0.5],[1,0.5]];portConstraint=eastwest;whiteSpace=wrap;html=1;" vertex="1" parent="xEkYmI9kNxcId5JUl7A3-115">
          <mxGeometry y="270" width="200" height="32" as="geometry" />
        </mxCell>
        <mxCell id="xEkYmI9kNxcId5JUl7A3-173" value="isDeployedIn*" style="text;strokeColor=#6A00FF;fillColor=none;align=left;verticalAlign=top;spacingLeft=4;spacingRight=4;overflow=hidden;rotatable=0;points=[[0,0.5],[1,0.5]];portConstraint=eastwest;whiteSpace=wrap;html=1;" vertex="1" parent="xEkYmI9kNxcId5JUl7A3-115">
          <mxGeometry y="302" width="200" height="32" as="geometry" />
        </mxCell>
        <mxCell id="xEkYmI9kNxcId5JUl7A3-119" value="Space" style="swimlane;fontStyle=0;childLayout=stackLayout;horizontal=1;startSize=26;fillColor=#0062FF;horizontalStack=0;resizeParent=1;resizeParentMax=0;resizeLast=0;collapsible=1;marginBottom=0;strokeColor=#0058E6;" vertex="1" parent="1">
          <mxGeometry x="70" y="-650" width="90" height="110" as="geometry">
            <mxRectangle x="110" y="-650" width="80" height="30" as="alternateBounds" />
          </mxGeometry>
        </mxCell>
        <mxCell id="xEkYmI9kNxcId5JUl7A3-120" value="id" style="text;strokeColor=#0049BF;fillColor=none;align=left;verticalAlign=top;spacingLeft=4;spacingRight=4;overflow=hidden;rotatable=0;points=[[0,0.5],[1,0.5]];portConstraint=eastwest;whiteSpace=wrap;html=1;" vertex="1" parent="xEkYmI9kNxcId5JUl7A3-119">
          <mxGeometry y="26" width="90" height="26" as="geometry" />
        </mxCell>
        <mxCell id="xEkYmI9kNxcId5JUl7A3-121" value="type" style="text;strokeColor=#0049BF;fillColor=none;align=left;verticalAlign=top;spacingLeft=4;spacingRight=4;overflow=hidden;rotatable=0;points=[[0,0.5],[1,0.5]];portConstraint=eastwest;whiteSpace=wrap;html=1;" vertex="1" parent="xEkYmI9kNxcId5JUl7A3-119">
          <mxGeometry y="52" width="90" height="26" as="geometry" />
        </mxCell>
        <mxCell id="xEkYmI9kNxcId5JUl7A3-122" value="name" style="text;strokeColor=none;fillColor=none;align=left;verticalAlign=top;spacingLeft=4;spacingRight=4;overflow=hidden;rotatable=0;points=[[0,0.5],[1,0.5]];portConstraint=eastwest;whiteSpace=wrap;html=1;" vertex="1" parent="xEkYmI9kNxcId5JUl7A3-119">
          <mxGeometry y="78" width="90" height="32" as="geometry" />
        </mxCell>
        <mxCell id="xEkYmI9kNxcId5JUl7A3-124" value="ActuationCommand" style="swimlane;fontStyle=0;childLayout=stackLayout;horizontal=1;startSize=26;fillColor=#0062FF;horizontalStack=0;resizeParent=1;resizeParentMax=0;resizeLast=0;collapsible=1;marginBottom=0;" vertex="1" parent="1">
          <mxGeometry x="10" y="-510" width="130" height="110" as="geometry">
            <mxRectangle x="100" y="-452" width="150" height="30" as="alternateBounds" />
          </mxGeometry>
        </mxCell>
        <mxCell id="xEkYmI9kNxcId5JUl7A3-125" value="id" style="text;strokeColor=#0049BF;fillColor=none;align=left;verticalAlign=top;spacingLeft=4;spacingRight=4;overflow=hidden;rotatable=0;points=[[0,0.5],[1,0.5]];portConstraint=eastwest;whiteSpace=wrap;html=1;" vertex="1" parent="xEkYmI9kNxcId5JUl7A3-124">
          <mxGeometry y="26" width="130" height="26" as="geometry" />
        </mxCell>
        <mxCell id="xEkYmI9kNxcId5JUl7A3-126" value="type" style="text;strokeColor=#0049BF;fillColor=none;align=left;verticalAlign=top;spacingLeft=4;spacingRight=4;overflow=hidden;rotatable=0;points=[[0,0.5],[1,0.5]];portConstraint=eastwest;whiteSpace=wrap;html=1;" vertex="1" parent="xEkYmI9kNxcId5JUl7A3-124">
          <mxGeometry y="52" width="130" height="26" as="geometry" />
        </mxCell>
        <mxCell id="xEkYmI9kNxcId5JUl7A3-127" value="name" style="text;strokeColor=#0049BF;fillColor=none;align=left;verticalAlign=top;spacingLeft=4;spacingRight=4;overflow=hidden;rotatable=0;points=[[0,0.5],[1,0.5]];portConstraint=eastwest;whiteSpace=wrap;html=1;" vertex="1" parent="xEkYmI9kNxcId5JUl7A3-124">
          <mxGeometry y="78" width="130" height="32" as="geometry" />
        </mxCell>
        <mxCell id="xEkYmI9kNxcId5JUl7A3-128" value="Observation" style="swimlane;fontStyle=0;childLayout=stackLayout;horizontal=1;startSize=26;fillColor=#0062FF;horizontalStack=0;resizeParent=1;resizeParentMax=0;resizeLast=0;collapsible=1;marginBottom=0;strokeColor=#0058E6;" vertex="1" parent="1">
          <mxGeometry x="270" y="-300" width="150" height="174" as="geometry">
            <mxRectangle x="310" y="-222" width="80" height="30" as="alternateBounds" />
          </mxGeometry>
        </mxCell>
        <mxCell id="xEkYmI9kNxcId5JUl7A3-129" value="id" style="text;strokeColor=#0049BF;fillColor=none;align=left;verticalAlign=top;spacingLeft=4;spacingRight=4;overflow=hidden;rotatable=0;points=[[0,0.5],[1,0.5]];portConstraint=eastwest;whiteSpace=wrap;html=1;" vertex="1" parent="xEkYmI9kNxcId5JUl7A3-128">
          <mxGeometry y="26" width="150" height="26" as="geometry" />
        </mxCell>
        <mxCell id="xEkYmI9kNxcId5JUl7A3-130" value="type" style="text;strokeColor=#0049BF;fillColor=none;align=left;verticalAlign=top;spacingLeft=4;spacingRight=4;overflow=hidden;rotatable=0;points=[[0,0.5],[1,0.5]];portConstraint=eastwest;whiteSpace=wrap;html=1;" vertex="1" parent="xEkYmI9kNxcId5JUl7A3-128">
          <mxGeometry y="52" width="150" height="26" as="geometry" />
        </mxCell>
        <mxCell id="xEkYmI9kNxcId5JUl7A3-131" value="name" style="text;strokeColor=#0049BF;fillColor=none;align=left;verticalAlign=top;spacingLeft=4;spacingRight=4;overflow=hidden;rotatable=0;points=[[0,0.5],[1,0.5]];portConstraint=eastwest;whiteSpace=wrap;html=1;" vertex="1" parent="xEkYmI9kNxcId5JUl7A3-128">
          <mxGeometry y="78" width="150" height="32" as="geometry" />
        </mxCell>
        <mxCell id="xEkYmI9kNxcId5JUl7A3-160" value="isCapturedBy*" style="text;strokeColor=#0049BF;fillColor=none;align=left;verticalAlign=top;spacingLeft=4;spacingRight=4;overflow=hidden;rotatable=0;points=[[0,0.5],[1,0.5]];portConstraint=eastwest;whiteSpace=wrap;html=1;" vertex="1" parent="xEkYmI9kNxcId5JUl7A3-128">
          <mxGeometry y="110" width="150" height="32" as="geometry" />
        </mxCell>
        <mxCell id="xEkYmI9kNxcId5JUl7A3-161" value="isReceivedBy*" style="text;strokeColor=#0049BF;fillColor=none;align=left;verticalAlign=top;spacingLeft=4;spacingRight=4;overflow=hidden;rotatable=0;points=[[0,0.5],[1,0.5]];portConstraint=eastwest;whiteSpace=wrap;html=1;" vertex="1" parent="xEkYmI9kNxcId5JUl7A3-128">
          <mxGeometry y="142" width="150" height="32" as="geometry" />
        </mxCell>
        <mxCell id="xEkYmI9kNxcId5JUl7A3-150" value="belongsTo" style="edgeStyle=orthogonalEdgeStyle;rounded=0;orthogonalLoop=1;jettySize=auto;html=1;entryX=-0.002;entryY=0.09;entryDx=0;entryDy=0;entryPerimeter=0;" edge="1" parent="1" source="xEkYmI9kNxcId5JUl7A3-132" target="xEkYmI9kNxcId5JUl7A3-142">
          <mxGeometry relative="1" as="geometry">
            <Array as="points">
              <mxPoint x="630" y="-136" />
              <mxPoint x="630" y="-136" />
            </Array>
          </mxGeometry>
        </mxCell>
        <mxCell id="xEkYmI9kNxcId5JUl7A3-162" value="receives" style="edgeStyle=orthogonalEdgeStyle;rounded=0;orthogonalLoop=1;jettySize=auto;html=1;entryX=1;entryY=0.5;entryDx=0;entryDy=0;" edge="1" parent="1" source="xEkYmI9kNxcId5JUl7A3-132" target="xEkYmI9kNxcId5JUl7A3-131">
          <mxGeometry relative="1" as="geometry">
            <mxPoint x="400" y="-141" as="targetPoint" />
            <Array as="points">
              <mxPoint x="440" y="-141" />
              <mxPoint x="440" y="-206" />
            </Array>
          </mxGeometry>
        </mxCell>
        <mxCell id="V6GIQ45EQ9TIltURCN56-1" style="edgeStyle=orthogonalEdgeStyle;rounded=0;orthogonalLoop=1;jettySize=auto;html=1;exitX=0.75;exitY=0;exitDx=0;exitDy=0;" edge="1" parent="1" source="xEkYmI9kNxcId5JUl7A3-132">
          <mxGeometry relative="1" as="geometry">
            <mxPoint x="580" y="-260" as="targetPoint" />
          </mxGeometry>
        </mxCell>
        <mxCell id="xEkYmI9kNxcId5JUl7A3-132" value="Application" style="swimlane;fontStyle=0;childLayout=stackLayout;horizontal=1;startSize=26;fillColor=#0062FF;horizontalStack=0;resizeParent=1;resizeParentMax=0;resizeLast=0;collapsible=1;marginBottom=0;strokeColor=#0058E6;" vertex="1" parent="1">
          <mxGeometry x="480" y="-260" width="140" height="270" as="geometry">
            <mxRectangle x="480" y="-260" width="80" height="30" as="alternateBounds" />
          </mxGeometry>
        </mxCell>
        <mxCell id="xEkYmI9kNxcId5JUl7A3-133" value="id" style="text;strokeColor=#0049BF;fillColor=none;align=left;verticalAlign=top;spacingLeft=4;spacingRight=4;overflow=hidden;rotatable=0;points=[[0,0.5],[1,0.5]];portConstraint=eastwest;whiteSpace=wrap;html=1;" vertex="1" parent="xEkYmI9kNxcId5JUl7A3-132">
          <mxGeometry y="26" width="140" height="26" as="geometry" />
        </mxCell>
        <mxCell id="xEkYmI9kNxcId5JUl7A3-134" value="type" style="text;strokeColor=#0049BF;fillColor=none;align=left;verticalAlign=top;spacingLeft=4;spacingRight=4;overflow=hidden;rotatable=0;points=[[0,0.5],[1,0.5]];portConstraint=eastwest;whiteSpace=wrap;html=1;" vertex="1" parent="xEkYmI9kNxcId5JUl7A3-132">
          <mxGeometry y="52" width="140" height="26" as="geometry" />
        </mxCell>
        <mxCell id="xEkYmI9kNxcId5JUl7A3-135" value="name" style="text;strokeColor=#0049BF;fillColor=none;align=left;verticalAlign=top;spacingLeft=4;spacingRight=4;overflow=hidden;rotatable=0;points=[[0,0.5],[1,0.5]];portConstraint=eastwest;whiteSpace=wrap;html=1;" vertex="1" parent="xEkYmI9kNxcId5JUl7A3-132">
          <mxGeometry y="78" width="140" height="32" as="geometry" />
        </mxCell>
        <mxCell id="xEkYmI9kNxcId5JUl7A3-155" value="priority" style="text;strokeColor=#0049BF;fillColor=none;align=left;verticalAlign=top;spacingLeft=4;spacingRight=4;overflow=hidden;rotatable=0;points=[[0,0.5],[1,0.5]];portConstraint=eastwest;whiteSpace=wrap;html=1;" vertex="1" parent="xEkYmI9kNxcId5JUl7A3-132">
          <mxGeometry y="110" width="140" height="32" as="geometry" />
        </mxCell>
        <mxCell id="xEkYmI9kNxcId5JUl7A3-156" value="processingRate" style="text;strokeColor=#0049BF;fillColor=none;align=left;verticalAlign=top;spacingLeft=4;spacingRight=4;overflow=hidden;rotatable=0;points=[[0,0.5],[1,0.5]];portConstraint=eastwest;whiteSpace=wrap;html=1;" vertex="1" parent="xEkYmI9kNxcId5JUl7A3-132">
          <mxGeometry y="142" width="140" height="32" as="geometry" />
        </mxCell>
        <mxCell id="xEkYmI9kNxcId5JUl7A3-157" value="processingDistibution" style="text;strokeColor=#0049BF;fillColor=none;align=left;verticalAlign=top;spacingLeft=4;spacingRight=4;overflow=hidden;rotatable=0;points=[[0,0.5],[1,0.5]];portConstraint=eastwest;whiteSpace=wrap;html=1;" vertex="1" parent="xEkYmI9kNxcId5JUl7A3-132">
          <mxGeometry y="174" width="140" height="32" as="geometry" />
        </mxCell>
        <mxCell id="xEkYmI9kNxcId5JUl7A3-158" value="belongsToCategory*" style="text;strokeColor=#0049BF;fillColor=none;align=left;verticalAlign=top;spacingLeft=4;spacingRight=4;overflow=hidden;rotatable=0;points=[[0,0.5],[1,0.5]];portConstraint=eastwest;whiteSpace=wrap;html=1;" vertex="1" parent="xEkYmI9kNxcId5JUl7A3-132">
          <mxGeometry y="206" width="140" height="32" as="geometry" />
        </mxCell>
        <mxCell id="V6GIQ45EQ9TIltURCN56-15" value="receivesObservation*" style="text;strokeColor=#0049BF;fillColor=none;align=left;verticalAlign=top;spacingLeft=4;spacingRight=4;overflow=hidden;rotatable=0;points=[[0,0.5],[1,0.5]];portConstraint=eastwest;whiteSpace=wrap;html=1;" vertex="1" parent="xEkYmI9kNxcId5JUl7A3-132">
          <mxGeometry y="238" width="140" height="32" as="geometry" />
        </mxCell>
        <mxCell id="xEkYmI9kNxcId5JUl7A3-148" value="hasDeployedApp" style="edgeStyle=orthogonalEdgeStyle;rounded=0;orthogonalLoop=1;jettySize=auto;html=1;entryX=0.75;entryY=0;entryDx=0;entryDy=0;" edge="1" parent="1" source="xEkYmI9kNxcId5JUl7A3-136" target="xEkYmI9kNxcId5JUl7A3-132">
          <mxGeometry relative="1" as="geometry">
            <mxPoint x="665" y="-230" as="targetPoint" />
            <Array as="points">
              <mxPoint x="585" y="-360" />
              <mxPoint x="585" y="-360" />
            </Array>
          </mxGeometry>
        </mxCell>
        <mxCell id="xEkYmI9kNxcId5JUl7A3-136" value="Smart Environment" style="swimlane;fontStyle=0;childLayout=stackLayout;horizontal=1;startSize=26;fillColor=#6A00FF;horizontalStack=0;resizeParent=1;resizeParentMax=0;resizeLast=0;collapsible=1;marginBottom=0;strokeColor=#6A00FF;" vertex="1" parent="1">
          <mxGeometry x="520" y="-614" width="160" height="142" as="geometry">
            <mxRectangle x="630" y="-720" width="180" height="30" as="alternateBounds" />
          </mxGeometry>
        </mxCell>
        <mxCell id="xEkYmI9kNxcId5JUl7A3-137" value="id" style="text;strokeColor=#6A00FF;fillColor=none;align=left;verticalAlign=top;spacingLeft=4;spacingRight=4;overflow=hidden;rotatable=0;points=[[0,0.5],[1,0.5]];portConstraint=eastwest;whiteSpace=wrap;html=1;" vertex="1" parent="xEkYmI9kNxcId5JUl7A3-136">
          <mxGeometry y="26" width="160" height="26" as="geometry" />
        </mxCell>
        <mxCell id="xEkYmI9kNxcId5JUl7A3-138" value="type" style="text;strokeColor=#6A00FF;fillColor=none;align=left;verticalAlign=top;spacingLeft=4;spacingRight=4;overflow=hidden;rotatable=0;points=[[0,0.5],[1,0.5]];portConstraint=eastwest;whiteSpace=wrap;html=1;" vertex="1" parent="xEkYmI9kNxcId5JUl7A3-136">
          <mxGeometry y="52" width="160" height="26" as="geometry" />
        </mxCell>
        <mxCell id="xEkYmI9kNxcId5JUl7A3-139" value="name" style="text;strokeColor=#6A00FF;fillColor=none;align=left;verticalAlign=top;spacingLeft=4;spacingRight=4;overflow=hidden;rotatable=0;points=[[0,0.5],[1,0.5]];portConstraint=eastwest;whiteSpace=wrap;html=1;" vertex="1" parent="xEkYmI9kNxcId5JUl7A3-136">
          <mxGeometry y="78" width="160" height="32" as="geometry" />
        </mxCell>
        <mxCell id="xEkYmI9kNxcId5JUl7A3-159" value="hasDeployedApplication*" style="text;strokeColor=#6A00FF;fillColor=none;align=left;verticalAlign=top;spacingLeft=4;spacingRight=4;overflow=hidden;rotatable=0;points=[[0,0.5],[1,0.5]];portConstraint=eastwest;whiteSpace=wrap;html=1;" vertex="1" parent="xEkYmI9kNxcId5JUl7A3-136">
          <mxGeometry y="110" width="160" height="32" as="geometry" />
        </mxCell>
        <mxCell id="xEkYmI9kNxcId5JUl7A3-149" value="hasQosRequirement" style="edgeStyle=orthogonalEdgeStyle;rounded=0;orthogonalLoop=1;jettySize=auto;html=1;entryX=0.443;entryY=1.075;entryDx=0;entryDy=0;entryPerimeter=0;" edge="1" parent="1" source="xEkYmI9kNxcId5JUl7A3-140" target="xEkYmI9kNxcId5JUl7A3-153">
          <mxGeometry relative="1" as="geometry">
            <Array as="points">
              <mxPoint x="818" y="-230" />
              <mxPoint x="818" y="-230" />
            </Array>
          </mxGeometry>
        </mxCell>
        <mxCell id="xEkYmI9kNxcId5JUl7A3-140" value="ApplicationCategory" style="swimlane;fontStyle=0;childLayout=stackLayout;horizontal=1;startSize=26;fillColor=#0062FF;horizontalStack=0;resizeParent=1;resizeParentMax=0;resizeLast=0;collapsible=1;marginBottom=0;strokeColor=#0058E6;" vertex="1" parent="1">
          <mxGeometry x="730" y="-190" width="150" height="142" as="geometry">
            <mxRectangle x="730" y="-190" width="190" height="30" as="alternateBounds" />
          </mxGeometry>
        </mxCell>
        <mxCell id="xEkYmI9kNxcId5JUl7A3-141" value="id" style="text;strokeColor=#0049BF;fillColor=none;align=left;verticalAlign=top;spacingLeft=4;spacingRight=4;overflow=hidden;rotatable=0;points=[[0,0.5],[1,0.5]];portConstraint=eastwest;whiteSpace=wrap;html=1;" vertex="1" parent="xEkYmI9kNxcId5JUl7A3-140">
          <mxGeometry y="26" width="150" height="26" as="geometry" />
        </mxCell>
        <mxCell id="xEkYmI9kNxcId5JUl7A3-142" value="type" style="text;strokeColor=#0049BF;fillColor=none;align=left;verticalAlign=top;spacingLeft=4;spacingRight=4;overflow=hidden;rotatable=0;points=[[0,0.5],[1,0.5]];portConstraint=eastwest;whiteSpace=wrap;html=1;" vertex="1" parent="xEkYmI9kNxcId5JUl7A3-140">
          <mxGeometry y="52" width="150" height="26" as="geometry" />
        </mxCell>
        <mxCell id="xEkYmI9kNxcId5JUl7A3-143" value="name" style="text;strokeColor=#0049BF;fillColor=none;align=left;verticalAlign=top;spacingLeft=4;spacingRight=4;overflow=hidden;rotatable=0;points=[[0,0.5],[1,0.5]];portConstraint=eastwest;whiteSpace=wrap;html=1;" vertex="1" parent="xEkYmI9kNxcId5JUl7A3-140">
          <mxGeometry y="78" width="150" height="32" as="geometry" />
        </mxCell>
        <mxCell id="V6GIQ45EQ9TIltURCN56-16" value="hasQoSRequirement*" style="text;strokeColor=#0049BF;fillColor=none;align=left;verticalAlign=top;spacingLeft=4;spacingRight=4;overflow=hidden;rotatable=0;points=[[0,0.5],[1,0.5]];portConstraint=eastwest;whiteSpace=wrap;html=1;" vertex="1" parent="xEkYmI9kNxcId5JUl7A3-140">
          <mxGeometry y="110" width="150" height="32" as="geometry" />
        </mxCell>
        <mxCell id="xEkYmI9kNxcId5JUl7A3-144" value="QosRequirement" style="swimlane;fontStyle=0;childLayout=stackLayout;horizontal=1;startSize=26;fillColor=#0062FF;horizontalStack=0;resizeParent=1;resizeParentMax=0;resizeLast=0;collapsible=1;marginBottom=0;strokeColor=#0058E6;" vertex="1" parent="1">
          <mxGeometry x="760" y="-520" width="130" height="206" as="geometry">
            <mxRectangle x="760" y="-520" width="150" height="30" as="alternateBounds" />
          </mxGeometry>
        </mxCell>
        <mxCell id="xEkYmI9kNxcId5JUl7A3-145" value="id" style="text;strokeColor=#0049BF;fillColor=none;align=left;verticalAlign=top;spacingLeft=4;spacingRight=4;overflow=hidden;rotatable=0;points=[[0,0.5],[1,0.5]];portConstraint=eastwest;whiteSpace=wrap;html=1;" vertex="1" parent="xEkYmI9kNxcId5JUl7A3-144">
          <mxGeometry y="26" width="130" height="26" as="geometry" />
        </mxCell>
        <mxCell id="xEkYmI9kNxcId5JUl7A3-146" value="type" style="text;strokeColor=#0049BF;fillColor=none;align=left;verticalAlign=top;spacingLeft=4;spacingRight=4;overflow=hidden;rotatable=0;points=[[0,0.5],[1,0.5]];portConstraint=eastwest;whiteSpace=wrap;html=1;" vertex="1" parent="xEkYmI9kNxcId5JUl7A3-144">
          <mxGeometry y="52" width="130" height="26" as="geometry" />
        </mxCell>
        <mxCell id="xEkYmI9kNxcId5JUl7A3-147" value="name" style="text;strokeColor=#0049BF;fillColor=none;align=left;verticalAlign=top;spacingLeft=4;spacingRight=4;overflow=hidden;rotatable=0;points=[[0,0.5],[1,0.5]];portConstraint=eastwest;whiteSpace=wrap;html=1;" vertex="1" parent="xEkYmI9kNxcId5JUl7A3-144">
          <mxGeometry y="78" width="130" height="32" as="geometry" />
        </mxCell>
        <mxCell id="xEkYmI9kNxcId5JUl7A3-151" value="maxResponseTime" style="text;strokeColor=#0049BF;fillColor=none;align=left;verticalAlign=top;spacingLeft=4;spacingRight=4;overflow=hidden;rotatable=0;points=[[0,0.5],[1,0.5]];portConstraint=eastwest;whiteSpace=wrap;html=1;" vertex="1" parent="xEkYmI9kNxcId5JUl7A3-144">
          <mxGeometry y="110" width="130" height="32" as="geometry" />
        </mxCell>
        <mxCell id="xEkYmI9kNxcId5JUl7A3-152" value="minThroughput" style="text;strokeColor=#0049BF;fillColor=none;align=left;verticalAlign=top;spacingLeft=4;spacingRight=4;overflow=hidden;rotatable=0;points=[[0,0.5],[1,0.5]];portConstraint=eastwest;whiteSpace=wrap;html=1;" vertex="1" parent="xEkYmI9kNxcId5JUl7A3-144">
          <mxGeometry y="142" width="130" height="32" as="geometry" />
        </mxCell>
        <mxCell id="xEkYmI9kNxcId5JUl7A3-153" value="maxDropRate" style="text;strokeColor=#0049BF;fillColor=none;align=left;verticalAlign=top;spacingLeft=4;spacingRight=4;overflow=hidden;rotatable=0;points=[[0,0.5],[1,0.5]];portConstraint=eastwest;whiteSpace=wrap;html=1;" vertex="1" parent="xEkYmI9kNxcId5JUl7A3-144">
          <mxGeometry y="174" width="130" height="32" as="geometry" />
        </mxCell>
        <mxCell id="xEkYmI9kNxcId5JUl7A3-167" value="generates/receives" style="edgeStyle=orthogonalEdgeStyle;rounded=0;orthogonalLoop=1;jettySize=auto;html=1;exitX=0;exitY=0.5;exitDx=0;exitDy=0;entryX=1;entryY=0.5;entryDx=0;entryDy=0;" edge="1" parent="1" target="xEkYmI9kNxcId5JUl7A3-125" source="xEkYmI9kNxcId5JUl7A3-171">
          <mxGeometry relative="1" as="geometry">
            <mxPoint x="370" y="-500" as="sourcePoint" />
            <Array as="points">
              <mxPoint x="290" y="-470" />
              <mxPoint x="200" y="-470" />
            </Array>
            <mxPoint x="140" y="-480" as="targetPoint" />
          </mxGeometry>
        </mxCell>
        <mxCell id="xEkYmI9kNxcId5JUl7A3-184" value="generates" style="edgeStyle=orthogonalEdgeStyle;rounded=0;orthogonalLoop=1;jettySize=auto;html=1;" edge="1" parent="1" source="xEkYmI9kNxcId5JUl7A3-176" target="xEkYmI9kNxcId5JUl7A3-161">
          <mxGeometry relative="1" as="geometry">
            <mxPoint x="350" y="-110" as="targetPoint" />
            <Array as="points">
              <mxPoint x="290" y="-90" />
              <mxPoint x="290" y="-96" />
              <mxPoint x="345" y="-96" />
            </Array>
            <mxPoint as="offset" />
          </mxGeometry>
        </mxCell>
        <mxCell id="xEkYmI9kNxcId5JUl7A3-185" value="receives" style="edgeStyle=orthogonalEdgeStyle;rounded=0;orthogonalLoop=1;jettySize=auto;html=1;entryX=0.011;entryY=0.266;entryDx=0;entryDy=0;entryPerimeter=0;" edge="1" parent="1" source="xEkYmI9kNxcId5JUl7A3-176" target="xEkYmI9kNxcId5JUl7A3-131">
          <mxGeometry relative="1" as="geometry" />
        </mxCell>
        <mxCell id="xEkYmI9kNxcId5JUl7A3-176" value="VirtualSensor" style="swimlane;fontStyle=0;childLayout=stackLayout;horizontal=1;startSize=26;fillColor=#0062FF;horizontalStack=0;resizeParent=1;resizeParentMax=0;resizeLast=0;collapsible=1;marginBottom=0;strokeColor=#0058E6;" vertex="1" parent="1">
          <mxGeometry x="10" y="-308" width="170" height="302" as="geometry">
            <mxRectangle x="85" y="-302" width="80" height="30" as="alternateBounds" />
          </mxGeometry>
        </mxCell>
        <mxCell id="xEkYmI9kNxcId5JUl7A3-177" value="id" style="text;strokeColor=#0049BF;fillColor=none;align=left;verticalAlign=top;spacingLeft=4;spacingRight=4;overflow=hidden;rotatable=0;points=[[0,0.5],[1,0.5]];portConstraint=eastwest;whiteSpace=wrap;html=1;" vertex="1" parent="xEkYmI9kNxcId5JUl7A3-176">
          <mxGeometry y="26" width="170" height="26" as="geometry" />
        </mxCell>
        <mxCell id="xEkYmI9kNxcId5JUl7A3-178" value="type" style="text;strokeColor=#0049BF;fillColor=none;align=left;verticalAlign=top;spacingLeft=4;spacingRight=4;overflow=hidden;rotatable=0;points=[[0,0.5],[1,0.5]];portConstraint=eastwest;whiteSpace=wrap;html=1;" vertex="1" parent="xEkYmI9kNxcId5JUl7A3-176">
          <mxGeometry y="52" width="170" height="26" as="geometry" />
        </mxCell>
        <mxCell id="xEkYmI9kNxcId5JUl7A3-179" value="name" style="text;strokeColor=#0049BF;fillColor=none;align=left;verticalAlign=top;spacingLeft=4;spacingRight=4;overflow=hidden;rotatable=0;points=[[0,0.5],[1,0.5]];portConstraint=eastwest;whiteSpace=wrap;html=1;" vertex="1" parent="xEkYmI9kNxcId5JUl7A3-176">
          <mxGeometry y="78" width="170" height="32" as="geometry" />
        </mxCell>
        <mxCell id="xEkYmI9kNxcId5JUl7A3-181" value="processingRate" style="text;strokeColor=#0049BF;fillColor=none;align=left;verticalAlign=top;spacingLeft=4;spacingRight=4;overflow=hidden;rotatable=0;points=[[0,0.5],[1,0.5]];portConstraint=eastwest;whiteSpace=wrap;html=1;" vertex="1" parent="xEkYmI9kNxcId5JUl7A3-176">
          <mxGeometry y="110" width="170" height="32" as="geometry" />
        </mxCell>
        <mxCell id="xEkYmI9kNxcId5JUl7A3-182" value="processingDistibution" style="text;strokeColor=#0049BF;fillColor=none;align=left;verticalAlign=top;spacingLeft=4;spacingRight=4;overflow=hidden;rotatable=0;points=[[0,0.5],[1,0.5]];portConstraint=eastwest;whiteSpace=wrap;html=1;" vertex="1" parent="xEkYmI9kNxcId5JUl7A3-176">
          <mxGeometry y="142" width="170" height="32" as="geometry" />
        </mxCell>
        <mxCell id="xEkYmI9kNxcId5JUl7A3-187" value="publishFrequency" style="text;strokeColor=#0049BF;fillColor=none;align=left;verticalAlign=top;spacingLeft=4;spacingRight=4;overflow=hidden;rotatable=0;points=[[0,0.5],[1,0.5]];portConstraint=eastwest;whiteSpace=wrap;html=1;" vertex="1" parent="xEkYmI9kNxcId5JUl7A3-176">
          <mxGeometry y="174" width="170" height="32" as="geometry" />
        </mxCell>
        <mxCell id="xEkYmI9kNxcId5JUl7A3-188" value="messageSize" style="text;strokeColor=#0049BF;fillColor=none;align=left;verticalAlign=top;spacingLeft=4;spacingRight=4;overflow=hidden;rotatable=0;points=[[0,0.5],[1,0.5]];portConstraint=eastwest;whiteSpace=wrap;html=1;" vertex="1" parent="xEkYmI9kNxcId5JUl7A3-176">
          <mxGeometry y="206" width="170" height="32" as="geometry" />
        </mxCell>
        <mxCell id="V6GIQ45EQ9TIltURCN56-13" value="generatesObservation*" style="text;strokeColor=#0049BF;fillColor=none;align=left;verticalAlign=top;spacingLeft=4;spacingRight=4;overflow=hidden;rotatable=0;points=[[0,0.5],[1,0.5]];portConstraint=eastwest;whiteSpace=wrap;html=1;" vertex="1" parent="xEkYmI9kNxcId5JUl7A3-176">
          <mxGeometry y="238" width="170" height="32" as="geometry" />
        </mxCell>
        <mxCell id="V6GIQ45EQ9TIltURCN56-14" value="receivesObservation*" style="text;strokeColor=#0049BF;fillColor=none;align=left;verticalAlign=top;spacingLeft=4;spacingRight=4;overflow=hidden;rotatable=0;points=[[0,0.5],[1,0.5]];portConstraint=eastwest;whiteSpace=wrap;html=1;" vertex="1" parent="xEkYmI9kNxcId5JUl7A3-176">
          <mxGeometry y="270" width="170" height="32" as="geometry" />
        </mxCell>
        <mxCell id="V6GIQ45EQ9TIltURCN56-11" value="" style="rounded=1;whiteSpace=wrap;html=1;fontFamily=Helvetica;fontSize=12;fontColor=default;fillColor=none;gradientColor=none;movable=1;resizable=1;rotatable=1;deletable=1;editable=1;locked=0;connectable=1;" vertex="1" parent="1">
          <mxGeometry x="710" y="-720" width="250" height="150" as="geometry" />
        </mxCell>
        <mxCell id="V6GIQ45EQ9TIltURCN56-2" value="Extended Data Model" style="swimlane;fontStyle=0;childLayout=stackLayout;horizontal=1;startSize=26;fillColor=#6A00FF;horizontalStack=0;resizeParent=1;resizeParentMax=0;resizeLast=0;collapsible=1;marginBottom=0;strokeColor=#6A00FF;movable=1;resizable=1;rotatable=1;deletable=1;editable=1;locked=0;connectable=1;" collapsed="1" vertex="1" parent="1">
          <mxGeometry x="742" y="-700" width="186" height="30" as="geometry">
            <mxRectangle x="706" y="-930" width="120" height="58" as="alternateBounds" />
          </mxGeometry>
        </mxCell>
        <mxCell id="V6GIQ45EQ9TIltURCN56-7" value="Data Model" style="swimlane;fontStyle=0;childLayout=stackLayout;horizontal=1;startSize=30;fillColor=#0062FF;horizontalStack=0;resizeParent=1;resizeParentMax=0;resizeLast=0;collapsible=1;marginBottom=0;strokeColor=#0058E6;movable=1;resizable=1;rotatable=1;deletable=1;editable=1;locked=0;connectable=1;" collapsed="1" vertex="1" parent="1">
          <mxGeometry x="742" y="-650" width="186" height="30" as="geometry">
            <mxRectangle x="760" y="-820" width="90" height="58" as="alternateBounds" />
          </mxGeometry>
        </mxCell>
      </root>
    </mxGraphModel>
  </diagram>
</mxfile>
